<?xml version="1.0" encoding="us-ascii" standalone="no"?><svg xmlns="http://www.w3.org/2000/svg" xmlns:xlink="http://www.w3.org/1999/xlink" contentStyleType="text/css" height="575.2px" preserveAspectRatio="none" style="width:856px;height:575px;background:#FFFFFF;" version="1.1" viewBox="0 0 856 575" width="856.8px" zoomAndPan="magnify"><defs/><g><text fill="#000000" font-family="sans-serif" font-size="11.2" font-weight="bold" lengthAdjust="spacing" textLength="313.6" x="266" y="19.6266">Cancer data evolution - From Diagnosis to Radiotherapy</text><!--cluster Date 0 (2018-04-30)\nDiagnosis / First Suspicion--><g id="cluster_Date 0 (2018-04-30)\nDiagnosis / First Suspicion"><path d="M6.8,80.4875 L156.4,80.4875 A3,3 0 0 1 158.4,82.4875 L164,113.4625 L201.2,113.4625 A2,2 0 0 1 203.2,115.4625 L203.2,568.0875 A2,2 0 0 1 201.2,570.0875 L6.8,570.0875 A2,2 0 0 1 4.8,568.0875 L4.8,82.4875 A2,2 0 0 1 6.8,80.4875 " fill="none" style="stroke:#000000;stroke-width:1.2000000000000002;"/><line style="stroke:#000000;stroke-width:1.2000000000000002;" x1="4.8" x2="164" y1="113.4625" y2="113.4625"/><text fill="#000000" font-family="sans-serif" font-size="11.2" font-weight="bold" lengthAdjust="spacing" textLength="105.6" x="29.6" y="93.7141">Date 0 (2018-04-30)</text><text fill="#000000" font-family="sans-serif" font-size="11.2" font-weight="bold" lengthAdjust="spacing" textLength="148.8" x="8" y="107.8016">Diagnosis / First Suspicion</text></g><!--cluster Date 1 (2018-06-12)\nSurgical Procedure--><g id="cluster_Date 1 (2018-06-12)\nSurgical Procedure"><path d="M224.4,77.6875 L333.2,77.6875 A3,3 0 0 1 335.2,79.6875 L340.8,110.6625 L350,110.6625 A2,2 0 0 1 352,112.6625 L352,212.4875 A2,2 0 0 1 350,214.4875 L224.4,214.4875 A2,2 0 0 1 222.4,212.4875 L222.4,79.6875 A2,2 0 0 1 224.4,77.6875 " fill="none" style="stroke:#000000;stroke-width:1.2000000000000002;"/><line style="stroke:#000000;stroke-width:1.2000000000000002;" x1="222.4" x2="340.8" y1="110.6625" y2="110.6625"/><text fill="#000000" font-family="sans-serif" font-size="11.2" font-weight="bold" lengthAdjust="spacing" textLength="105.6" x="226.8" y="90.9141">Date 1 (2018-06-12)</text><text fill="#000000" font-family="sans-serif" font-size="11.2" font-weight="bold" lengthAdjust="spacing" textLength="108" x="225.6" y="105.0016">Surgical Procedure</text></g><!--cluster Radiotherapy--><g id="cluster_Radiotherapy"><path d="M373.2,35.6875 L448.4,35.6875 A3,3 0 0 1 450.4,37.6875 L456,54.575 L849.2,54.575 A2,2 0 0 1 851.2,56.575 L851.2,238.4875 A2,2 0 0 1 849.2,240.4875 L373.2,240.4875 A2,2 0 0 1 371.2,238.4875 L371.2,37.6875 A2,2 0 0 1 373.2,35.6875 " fill="none" style="stroke:#000000;stroke-width:1.2000000000000002;"/><line style="stroke:#000000;stroke-width:1.2000000000000002;" x1="371.2" x2="456" y1="54.575" y2="54.575"/><text fill="#000000" font-family="sans-serif" font-size="11.2" font-weight="bold" lengthAdjust="spacing" textLength="74.4" x="374.4" y="48.9141">Radiotherapy</text></g><!--cluster Date 3 (2018-10-12)\nRadiotherapy end--><g id="cluster_Date 3 (2018-10-12)\nRadiotherapy end"><path d="M622.8,70.8875 L729.2,70.8875 A3,3 0 0 1 731.2,72.8875 L736.8,103.8625 L830,103.8625 A2,2 0 0 1 832,105.8625 L832,219.2875 A2,2 0 0 1 830,221.2875 L622.8,221.2875 A2,2 0 0 1 620.8,219.2875 L620.8,72.8875 A2,2 0 0 1 622.8,70.8875 " fill="none" style="stroke:#000000;stroke-width:1.2000000000000002;"/><line style="stroke:#000000;stroke-width:1.2000000000000002;" x1="620.8" x2="736.8" y1="103.8625" y2="103.8625"/><text fill="#000000" font-family="sans-serif" font-size="11.2" font-weight="bold" lengthAdjust="spacing" textLength="105.6" x="624" y="84.1141">Date 3 (2018-10-12)</text><text fill="#000000" font-family="sans-serif" font-size="11.2" font-weight="bold" lengthAdjust="spacing" textLength="99.2" x="627.2" y="98.2016">Radiotherapy end</text></g><!--cluster Date 2 (2018-09-10)\nRadiotherapy start--><g id="cluster_Date 2 (2018-09-10)\nRadiotherapy start"><path d="M392.4,70.8875 L498.8,70.8875 A3,3 0 0 1 500.8,72.8875 L506.4,103.8625 L599.6,103.8625 A2,2 0 0 1 601.6,105.8625 L601.6,219.2875 A2,2 0 0 1 599.6,221.2875 L392.4,221.2875 A2,2 0 0 1 390.4,219.2875 L390.4,72.8875 A2,2 0 0 1 392.4,70.8875 " fill="none" style="stroke:#000000;stroke-width:1.2000000000000002;"/><line style="stroke:#000000;stroke-width:1.2000000000000002;" x1="390.4" x2="506.4" y1="103.8625" y2="103.8625"/><text fill="#000000" font-family="sans-serif" font-size="11.2" font-weight="bold" lengthAdjust="spacing" textLength="105.6" x="393.6" y="84.1141">Date 2 (2018-09-10)</text><text fill="#000000" font-family="sans-serif" font-size="11.2" font-weight="bold" lengthAdjust="spacing" textLength="103.2" x="394.8" y="98.2016">Radiotherapy start</text></g><!--class Patient--><g id="elem_Patient"><rect codeLine="14" fill="#FFFFFF" height="75.1375" id="Patient" rx="2" ry="2" style="stroke:#181818;stroke-width:0.4000000000000001;" width="80.8" x="63.6" y="123.6875"/><ellipse cx="84.6" cy="140.7688" fill="#ADD1B2" rx="8.8" ry="8.8" style="stroke:#181818;stroke-width:0.8000000000000002;"/><path d="M86.8125,137.4688 Q86.9375,137.2938 87.0875,137.2063 Q87.2375,137.1188 87.4125,137.1188 Q87.7125,137.1188 87.9,137.3313 Q88.0875,137.5313 88.0875,138.0188 L88.0875,139.1813 Q88.0875,139.6688 87.9,139.8813 Q87.7125,140.0938 87.4125,140.0938 Q87.1375,140.0938 86.975,139.9313 Q86.8125,139.7813 86.725,139.3688 Q86.6875,139.0813 86.5375,138.9313 Q86.275,138.6313 85.7875,138.4563 Q85.3,138.2813 84.8,138.2813 Q84.1875,138.2813 83.675,138.5438 Q83.175,138.8063 82.775,139.4063 Q82.3875,140.0063 82.3875,140.8313 L82.3875,141.7063 Q82.3875,142.6938 83.1,143.3563 Q83.8125,144.0063 85.0875,144.0063 Q85.8375,144.0063 86.3625,143.8063 Q86.675,143.6813 87.0125,143.3313 Q87.225,143.1188 87.3375,143.0563 Q87.4625,142.9938 87.625,142.9938 Q87.8875,142.9938 88.0875,143.2063 Q88.3,143.4063 88.3,143.6813 Q88.3,143.9563 88.025,144.2813 Q87.625,144.7438 86.9875,145.0063 Q86.125,145.3688 85.0875,145.3688 Q83.875,145.3688 82.9125,144.8688 Q82.125,144.4688 81.575,143.6188 Q81.025,142.7563 81.025,141.7313 L81.025,140.8063 Q81.025,139.7438 81.5125,138.8313 Q82.0125,137.9063 82.8875,137.4188 Q83.7625,136.9188 84.75,136.9188 Q85.3375,136.9188 85.85,137.0563 Q86.375,137.1813 86.8125,137.4688 Z " fill="#000000"/><text fill="#000000" font-family="sans-serif" font-size="9.6" font-style="italic" lengthAdjust="spacing" textLength="32" x="99.4" y="137.6531">&#171;fixed&#187;</text><text fill="#000000" font-family="sans-serif" font-size="11.2" lengthAdjust="spacing" textLength="35.2" x="97.8" y="151.3891">Patient</text><line style="stroke:#181818;stroke-width:0.4000000000000001;" x1="64.4" x2="143.6" y1="157.85" y2="157.85"/><text fill="#000000" font-family="sans-serif" font-size="11.2" lengthAdjust="spacing" textLength="71.2" x="68.4" y="172.6766">demographics</text><text fill="#000000" font-family="sans-serif" font-size="11.2" lengthAdjust="spacing" textLength="66.4" x="68.4" y="186.7641">comorbidities</text><line style="stroke:#181818;stroke-width:0.4000000000000001;" x1="64.4" x2="143.6" y1="192.425" y2="192.425"/></g><!--class CancerCondition--><g id="elem_CancerCondition"><rect codeLine="19" fill="#FFFFFF" height="137.0125" id="CancerCondition" rx="2" ry="2" style="stroke:#181818;stroke-width:0.4000000000000001;" width="172.8" x="17.6" y="291.6875"/><ellipse cx="58.2" cy="304.4875" fill="#ADD1B2" rx="8.8" ry="8.8" style="stroke:#181818;stroke-width:0.8000000000000002;"/><path d="M60.4125,301.1875 Q60.5375,301.0125 60.6875,300.925 Q60.8375,300.8375 61.0125,300.8375 Q61.3125,300.8375 61.5,301.05 Q61.6875,301.25 61.6875,301.7375 L61.6875,302.9 Q61.6875,303.3875 61.5,303.6 Q61.3125,303.8125 61.0125,303.8125 Q60.7375,303.8125 60.575,303.65 Q60.4125,303.5 60.325,303.0875 Q60.2875,302.8 60.1375,302.65 Q59.875,302.35 59.3875,302.175 Q58.9,302 58.4,302 Q57.7875,302 57.275,302.2625 Q56.775,302.525 56.375,303.125 Q55.9875,303.725 55.9875,304.55 L55.9875,305.425 Q55.9875,306.4125 56.7,307.075 Q57.4125,307.725 58.6875,307.725 Q59.4375,307.725 59.9625,307.525 Q60.275,307.4 60.6125,307.05 Q60.825,306.8375 60.9375,306.775 Q61.0625,306.7125 61.225,306.7125 Q61.4875,306.7125 61.6875,306.925 Q61.9,307.125 61.9,307.4 Q61.9,307.675 61.625,308 Q61.225,308.4625 60.5875,308.725 Q59.725,309.0875 58.6875,309.0875 Q57.475,309.0875 56.5125,308.5875 Q55.725,308.1875 55.175,307.3375 Q54.625,306.475 54.625,305.45 L54.625,304.525 Q54.625,303.4625 55.1125,302.55 Q55.6125,301.625 56.4875,301.1375 Q57.3625,300.6375 58.35,300.6375 Q58.9375,300.6375 59.45,300.775 Q59.975,300.9 60.4125,301.1875 Z " fill="#000000"/><text fill="#000000" font-family="sans-serif" font-size="11.2" lengthAdjust="spacing" textLength="84.8" x="74.6" y="309.0703">CancerCondition</text><line style="stroke:#181818;stroke-width:0.4000000000000001;" x1="18.4" x2="189.6" y1="317.2875" y2="317.2875"/><text fill="#000000" font-family="sans-serif" font-size="11.2" lengthAdjust="spacing" textLength="71.2" x="22.4" y="332.1141">tumour_grade</text><text fill="#000000" font-family="sans-serif" font-size="11.2" lengthAdjust="spacing" textLength="163.2" x="22.4" y="346.2016">asserted_date = procedure date</text><line style="stroke:#181818;stroke-width:0.4000000000000001;" x1="18.4" x2="189.6" y1="351.8625" y2="351.8625"/><text fill="#000000" font-family="sans-serif" font-size="11.2" lengthAdjust="spacing" textLength="136" x="22.4" y="366.6891">histology_behaviour (fixed)</text><text fill="#000000" font-family="sans-serif" font-size="11.2" lengthAdjust="spacing" textLength="83.2" x="22.4" y="380.7766">body_site (fixed)</text><text fill="#000000" font-family="sans-serif" font-size="11.2" lengthAdjust="spacing" textLength="129.6" x="22.4" y="394.8641">base_of_diagnosis (fixed)</text><text fill="#000000" font-family="sans-serif" font-size="11.2" lengthAdjust="spacing" textLength="101.6" x="22.4" y="408.9516">imaging_type (fixed)</text><text fill="#000000" font-family="sans-serif" font-size="11.2" lengthAdjust="spacing" textLength="112.8" x="22.4" y="423.0391">biomarker_type (fixed)</text></g><!--class CancerStage--><g id="elem_CancerStage"><rect codeLine="29" fill="#FFFFFF" height="66.575" id="CancerStage" rx="2" ry="2" style="stroke:#181818;stroke-width:0.4000000000000001;" width="139.2" x="34.4" y="490.8875"/><ellipse cx="67.64" cy="503.6875" fill="#ADD1B2" rx="8.8" ry="8.8" style="stroke:#181818;stroke-width:0.8000000000000002;"/><path d="M69.8525,500.3875 Q69.9775,500.2125 70.1275,500.125 Q70.2775,500.0375 70.4525,500.0375 Q70.7525,500.0375 70.94,500.25 Q71.1275,500.45 71.1275,500.9375 L71.1275,502.1 Q71.1275,502.5875 70.94,502.8 Q70.7525,503.0125 70.4525,503.0125 Q70.1775,503.0125 70.015,502.85 Q69.8525,502.7 69.765,502.2875 Q69.7275,502 69.5775,501.85 Q69.315,501.55 68.8275,501.375 Q68.34,501.2 67.84,501.2 Q67.2275,501.2 66.715,501.4625 Q66.215,501.725 65.815,502.325 Q65.4275,502.925 65.4275,503.75 L65.4275,504.625 Q65.4275,505.6125 66.14,506.275 Q66.8525,506.925 68.1275,506.925 Q68.8775,506.925 69.4025,506.725 Q69.715,506.6 70.0525,506.25 Q70.265,506.0375 70.3775,505.975 Q70.5025,505.9125 70.665,505.9125 Q70.9275,505.9125 71.1275,506.125 Q71.34,506.325 71.34,506.6 Q71.34,506.875 71.065,507.2 Q70.665,507.6625 70.0275,507.925 Q69.165,508.2875 68.1275,508.2875 Q66.915,508.2875 65.9525,507.7875 Q65.165,507.3875 64.615,506.5375 Q64.065,505.675 64.065,504.65 L64.065,503.725 Q64.065,502.6625 64.5525,501.75 Q65.0525,500.825 65.9275,500.3375 Q66.8025,499.8375 67.79,499.8375 Q68.3775,499.8375 68.89,499.975 Q69.415,500.1 69.8525,500.3875 Z " fill="#000000"/><text fill="#000000" font-family="sans-serif" font-size="11.2" lengthAdjust="spacing" textLength="66.4" x="83.56" y="508.2703">CancerStage</text><line style="stroke:#181818;stroke-width:0.4000000000000001;" x1="35.2" x2="172.8" y1="516.4875" y2="516.4875"/><line style="stroke:#181818;stroke-width:0.4000000000000001;" x1="35.2" x2="172.8" y1="522.8875" y2="522.8875"/><text fill="#000000" font-family="sans-serif" font-size="11.2" lengthAdjust="spacing" textLength="102.4" x="39.2" y="537.7141">clinical_stage (fixed)</text><text fill="#000000" font-family="sans-serif" font-size="11.2" lengthAdjust="spacing" textLength="129.6" x="39.2" y="551.8016">pathological_stage (fixed)</text></g><!--class Surgery--><g id="elem_Surgery"><rect codeLine="44" fill="#FFFFFF" height="80.6625" id="Surgery" rx="2" ry="2" style="stroke:#181818;stroke-width:0.4000000000000001;" width="104" x="235.2" y="120.8875"/><ellipse cx="264.48" cy="133.6875" fill="#ADD1B2" rx="8.8" ry="8.8" style="stroke:#181818;stroke-width:0.8000000000000002;"/><path d="M266.6925,130.3875 Q266.8175,130.2125 266.9675,130.125 Q267.1175,130.0375 267.2925,130.0375 Q267.5925,130.0375 267.78,130.25 Q267.9675,130.45 267.9675,130.9375 L267.9675,132.1 Q267.9675,132.5875 267.78,132.8 Q267.5925,133.0125 267.2925,133.0125 Q267.0175,133.0125 266.855,132.85 Q266.6925,132.7 266.605,132.2875 Q266.5675,132 266.4175,131.85 Q266.155,131.55 265.6675,131.375 Q265.18,131.2 264.68,131.2 Q264.0675,131.2 263.555,131.4625 Q263.055,131.725 262.655,132.325 Q262.2675,132.925 262.2675,133.75 L262.2675,134.625 Q262.2675,135.6125 262.98,136.275 Q263.6925,136.925 264.9675,136.925 Q265.7175,136.925 266.2425,136.725 Q266.555,136.6 266.8925,136.25 Q267.105,136.0375 267.2175,135.975 Q267.3425,135.9125 267.505,135.9125 Q267.7675,135.9125 267.9675,136.125 Q268.18,136.325 268.18,136.6 Q268.18,136.875 267.905,137.2 Q267.505,137.6625 266.8675,137.925 Q266.005,138.2875 264.9675,138.2875 Q263.755,138.2875 262.7925,137.7875 Q262.005,137.3875 261.455,136.5375 Q260.905,135.675 260.905,134.65 L260.905,133.725 Q260.905,132.6625 261.3925,131.75 Q261.8925,130.825 262.7675,130.3375 Q263.6425,129.8375 264.63,129.8375 Q265.2175,129.8375 265.73,129.975 Q266.255,130.1 266.6925,130.3875 Z " fill="#000000"/><text fill="#000000" font-family="sans-serif" font-size="11.2" lengthAdjust="spacing" textLength="40" x="279.52" y="138.2703">Surgery</text><line style="stroke:#181818;stroke-width:0.4000000000000001;" x1="236" x2="338.4" y1="146.4875" y2="146.4875"/><text fill="#000000" font-family="sans-serif" font-size="11.2" lengthAdjust="spacing" textLength="85.6" x="240" y="161.3141">intent = definitive</text><text fill="#000000" font-family="sans-serif" font-size="11.2" lengthAdjust="spacing" textLength="76" x="240" y="175.4016">target_site = ...</text><text fill="#000000" font-family="sans-serif" font-size="11.2" lengthAdjust="spacing" textLength="94.4" x="240" y="189.4891">date = 2018-06-12</text><line style="stroke:#181818;stroke-width:0.4000000000000001;" x1="236" x2="338.4" y1="195.15" y2="195.15"/></g><!--class Radiotherapy--><g id="elem_Radiotherapy"><rect codeLine="65" fill="#FFFFFF" height="94.75" id="Radiotherapy" rx="2" ry="2" style="stroke:#181818;stroke-width:0.4000000000000001;" width="184.8" x="634" y="114.0875"/><ellipse cx="689" cy="126.8875" fill="#ADD1B2" rx="8.8" ry="8.8" style="stroke:#181818;stroke-width:0.8000000000000002;"/><path d="M691.2125,123.5875 Q691.3375,123.4125 691.4875,123.325 Q691.6375,123.2375 691.8125,123.2375 Q692.1125,123.2375 692.3,123.45 Q692.4875,123.65 692.4875,124.1375 L692.4875,125.3 Q692.4875,125.7875 692.3,126 Q692.1125,126.2125 691.8125,126.2125 Q691.5375,126.2125 691.375,126.05 Q691.2125,125.9 691.125,125.4875 Q691.0875,125.2 690.9375,125.05 Q690.675,124.75 690.1875,124.575 Q689.7,124.4 689.2,124.4 Q688.5875,124.4 688.075,124.6625 Q687.575,124.925 687.175,125.525 Q686.7875,126.125 686.7875,126.95 L686.7875,127.825 Q686.7875,128.8125 687.5,129.475 Q688.2125,130.125 689.4875,130.125 Q690.2375,130.125 690.7625,129.925 Q691.075,129.8 691.4125,129.45 Q691.625,129.2375 691.7375,129.175 Q691.8625,129.1125 692.025,129.1125 Q692.2875,129.1125 692.4875,129.325 Q692.7,129.525 692.7,129.8 Q692.7,130.075 692.425,130.4 Q692.025,130.8625 691.3875,131.125 Q690.525,131.4875 689.4875,131.4875 Q688.275,131.4875 687.3125,130.9875 Q686.525,130.5875 685.975,129.7375 Q685.425,128.875 685.425,127.85 L685.425,126.925 Q685.425,125.8625 685.9125,124.95 Q686.4125,124.025 687.2875,123.5375 Q688.1625,123.0375 689.15,123.0375 Q689.7375,123.0375 690.25,123.175 Q690.775,123.3 691.2125,123.5875 Z " fill="#000000"/><text fill="#000000" font-family="sans-serif" font-size="11.2" lengthAdjust="spacing" textLength="68" x="705.4" y="131.4703">Radiotherapy</text><line style="stroke:#181818;stroke-width:0.4000000000000001;" x1="634.8" x2="818" y1="139.6875" y2="139.6875"/><text fill="#000000" font-family="sans-serif" font-size="11.2" lengthAdjust="spacing" textLength="85.6" x="638.8" y="154.5141">intent = definitive</text><text fill="#000000" font-family="sans-serif" font-size="11.2" lengthAdjust="spacing" textLength="76" x="638.8" y="168.6016">target_site = ...</text><text fill="#000000" font-family="sans-serif" font-size="11.2" lengthAdjust="spacing" textLength="172" x="638.8" y="182.6891">start_date = 2018-09-10   ' Date 2</text><text fill="#000000" font-family="sans-serif" font-size="11.2" lengthAdjust="spacing" textLength="175.2" x="638.8" y="196.7766">end_date   = 2018-10-12   ' Date 3</text><line style="stroke:#181818;stroke-width:0.4000000000000001;" x1="634.8" x2="818" y1="202.4375" y2="202.4375"/></g><!--class Radiotherapy--><g id="elem_Radiotherapy"><rect codeLine="76" fill="#FFFFFF" height="94.75" id="Radiotherapy" rx="2" ry="2" style="stroke:#181818;stroke-width:0.4000000000000001;" width="184.8" x="403.6" y="114.0875"/><ellipse cx="458.6" cy="126.8875" fill="#ADD1B2" rx="8.8" ry="8.8" style="stroke:#181818;stroke-width:0.8000000000000002;"/><path d="M460.8125,123.5875 Q460.9375,123.4125 461.0875,123.325 Q461.2375,123.2375 461.4125,123.2375 Q461.7125,123.2375 461.9,123.45 Q462.0875,123.65 462.0875,124.1375 L462.0875,125.3 Q462.0875,125.7875 461.9,126 Q461.7125,126.2125 461.4125,126.2125 Q461.1375,126.2125 460.975,126.05 Q460.8125,125.9 460.725,125.4875 Q460.6875,125.2 460.5375,125.05 Q460.275,124.75 459.7875,124.575 Q459.3,124.4 458.8,124.4 Q458.1875,124.4 457.675,124.6625 Q457.175,124.925 456.775,125.525 Q456.3875,126.125 456.3875,126.95 L456.3875,127.825 Q456.3875,128.8125 457.1,129.475 Q457.8125,130.125 459.0875,130.125 Q459.8375,130.125 460.3625,129.925 Q460.675,129.8 461.0125,129.45 Q461.225,129.2375 461.3375,129.175 Q461.4625,129.1125 461.625,129.1125 Q461.8875,129.1125 462.0875,129.325 Q462.3,129.525 462.3,129.8 Q462.3,130.075 462.025,130.4 Q461.625,130.8625 460.9875,131.125 Q460.125,131.4875 459.0875,131.4875 Q457.875,131.4875 456.9125,130.9875 Q456.125,130.5875 455.575,129.7375 Q455.025,128.875 455.025,127.85 L455.025,126.925 Q455.025,125.8625 455.5125,124.95 Q456.0125,124.025 456.8875,123.5375 Q457.7625,123.0375 458.75,123.0375 Q459.3375,123.0375 459.85,123.175 Q460.375,123.3 460.8125,123.5875 Z " fill="#000000"/><text fill="#000000" font-family="sans-serif" font-size="11.2" lengthAdjust="spacing" textLength="68" x="475" y="131.4703">Radiotherapy</text><line style="stroke:#181818;stroke-width:0.4000000000000001;" x1="404.4" x2="587.6" y1="139.6875" y2="139.6875"/><text fill="#000000" font-family="sans-serif" font-size="11.2" lengthAdjust="spacing" textLength="85.6" x="408.4" y="154.5141">intent = definitive</text><text fill="#000000" font-family="sans-serif" font-size="11.2" lengthAdjust="spacing" textLength="76" x="408.4" y="168.6016">target_site = ...</text><text fill="#000000" font-family="sans-serif" font-size="11.2" lengthAdjust="spacing" textLength="172" x="408.4" y="182.6891">start_date = 2018-09-10   ' Date 2</text><text fill="#000000" font-family="sans-serif" font-size="11.2" lengthAdjust="spacing" textLength="175.2" x="408.4" y="196.7766">end_date   = 2018-10-12   ' Date 3</text><line style="stroke:#181818;stroke-width:0.4000000000000001;" x1="404.4" x2="587.6" y1="202.4375" y2="202.4375"/></g><!--link Patient to CancerCondition--><g id="link_Patient_CancerCondition"><path codeLine="36" d="M104,198.9515 C104,224.9195 104,255.6635 104,286.6795 " fill="none" id="Patient-to-CancerCondition" style="stroke:#181818;stroke-width:0.8000000000000002;"/><polygon fill="#181818" points="104,291.4795,107.2,284.2795,104,287.4795,100.8,284.2795,104,291.4795" style="stroke:#181818;stroke-width:0.8000000000000002;"/><text fill="#000000" font-family="sans-serif" font-size="10.4" lengthAdjust="spacing" textLength="44.8" x="104.8" y="264.8836">subject of</text></g><!--link CancerCondition to CancerStage--><g id="link_CancerCondition_CancerStage"><path codeLine="37" d="M104,428.5835 C104,450.0795 104,468.0795 104,485.9195 " fill="none" id="CancerCondition-to-CancerStage" style="stroke:#181818;stroke-width:0.8000000000000002;"/><polygon fill="#181818" points="104,490.7195,107.2,483.5195,104,486.7195,100.8,483.5195,104,490.7195" style="stroke:#181818;stroke-width:0.8000000000000002;"/><text fill="#000000" font-family="sans-serif" font-size="10.4" lengthAdjust="spacing" textLength="63.2" x="104.8" y="464.0836">staging target</text></g><!--link Surgery to CancerCondition--><g id="link_Surgery_CancerCondition"><path codeLine="54" d="M250.344,201.7595 C226.528,227.3995 198.163,257.9309 170.411,287.8029 " fill="none" id="Surgery-to-CancerCondition" style="stroke:#181818;stroke-width:0.8000000000000002;"/><polygon fill="#181818" points="167.144,291.3195,174.389,288.2226,169.8665,288.389,169.7001,283.8666,167.144,291.3195" style="stroke:#181818;stroke-width:0.8000000000000002;"/><text fill="#000000" font-family="sans-serif" font-size="10.4" lengthAdjust="spacing" textLength="37.6" x="201.6" y="264.8836">target of</text></g><!--SRC=[rLLDRzim3BtxLn2vB3daUnYweYcmjUjfXs8PiCi0Gv5aHuij6HBTBHZwtqT9SMAdAT2qf_baaFGZ-VX8EyuA2PFHHPAWGdgzOPfB2u8X0_bWYXgLqJ24EsjAk5KiryOf1sZW6nFAu5fQLcsJn6sKhfXb9V22EGT_4u3FZ6zoQsejRanXBFnOAvJ9OvAyWyNB7ug-_VJz2qoe2gKLAbO0PnNMLaAV6ogNtibc9JTM3Cu4hwX6baletJ8a8g0_cqmlXfFtm_bay5CV6Xx3dR8EOLcxId7Yf1TQZCtUCrHI8rnTPUgF5DVNmGSWP6boucUjk0i6RafZLqfG5z9RY8i68n9_OxHt4kKHOQqS4dVvDbt9DNjGfhRG3qa6mRyoOfiwehLZnRgam9HI2naCb41Qb28Llii5LDPmAJo3tX2Hc9EfoLAnRxcDg4gMAvsdkAswgLRAbCnkf3rsFMbjYPxds1OlQ98alTG5OnkmOhZs7PzqFqRrV5LwuqWCJWa9SN19CuFXyFe9bvVWwjKloH5CbXmx3n_42YaOGxE0pEOIarVgTKfwZMBwC9pEe7_WV4pb4BBTlasiqqQi7f_4kYHGpnhSDvdQ6bt6bBi1A8sUh0L9D0jBzH1L45kEYbh0Q3IAEewgEMGxZAA19Rq8oMaU0Z9_AkWmx2O36sr-5rBaai9FaTz0N59LWXe8ZipOVNYSIpUqdInfpATd7tloepz_afqZzyfXjJ5wE_xFW_BnGLFpHbFJIT2KRK4FalDXkuAQxmGLm4bGxS91Qj7RRwyNLCSR7S_hwZbbWLysYsb7OH-fWi1Hg6gs2wG2OXWqWP64VU0y17fTdal4ZjtPVcD31KViletRMREi7lgOsy31Vy9kkEnXzJibqlwpmfdm6n50U-SFW6Ebf7-rNyXnFEMqinfLfYY6ONEwJv-53lmBRiDHVFj0_0C0]--></g></svg>